<svg width="78" height="78" viewBox="0 0 78 78" fill="none" xmlns="http://www.w3.org/2000/svg">
<circle opacity="0.25" cx="39" cy="39" r="39" fill="#323232"/>
<path d="M46.8418 40.3301C46.8418 43.9395 46.1797 46.6816 44.8555 48.5566C43.5312 50.4199 41.5801 51.3516 39.002 51.3516C36.4707 51.3516 34.5312 50.4375 33.1836 48.6094C31.8359 46.7695 31.1445 44.0977 31.1094 40.5938V36.0059C31.1094 32.4082 31.7773 29.6836 33.1133 27.832C34.4492 25.9805 36.4004 25.0547 38.9668 25.0547C41.498 25.0547 43.4316 25.9512 44.7676 27.7441C46.1035 29.5254 46.7949 32.1562 46.8418 35.6367V40.3301ZM44.7324 35.7422C44.7324 32.8125 44.252 30.5977 43.291 29.0977C42.3418 27.5977 40.9004 26.8477 38.9668 26.8477C37.0684 26.8477 35.6387 27.5801 34.6777 29.0449C33.7168 30.5098 33.2246 32.6719 33.2012 35.5312V40.5586C33.2012 43.4766 33.6934 45.709 34.6777 47.2559C35.6738 48.8027 37.1152 49.5762 39.002 49.5762C40.877 49.5762 42.2949 48.8203 43.2559 47.3086C44.2285 45.7969 44.7207 43.582 44.7324 40.6641V35.7422Z" fill="white"/>
<path d="M44.8555 48.5566L45.6706 49.1359L45.6723 49.1335L44.8555 48.5566ZM33.1836 48.6094L32.3769 49.2003L32.3787 49.2028L33.1836 48.6094ZM31.1094 40.5938L30.1093 40.5938L30.1094 40.6038L31.1094 40.5938ZM44.7676 27.7441L43.9657 28.3416L43.9676 28.3441L44.7676 27.7441ZM46.8418 35.6367H47.8419L47.8417 35.6233L46.8418 35.6367ZM43.291 29.0977L42.446 29.6324L42.449 29.6371L43.291 29.0977ZM33.2012 35.5312L32.2012 35.5231V35.5312H33.2012ZM34.6777 47.2559L33.8341 47.7927L33.837 47.7973L34.6777 47.2559ZM43.2559 47.3086L42.4149 46.7675L42.4119 46.7721L43.2559 47.3086ZM44.7324 40.6641L45.7324 40.6681V40.6641H44.7324ZM45.8418 40.3301C45.8418 43.8424 45.1931 46.3451 44.0386 47.9798L45.6723 49.1335C47.1663 47.0182 47.8418 44.0365 47.8418 40.3301H45.8418ZM44.0404 47.9773C42.9298 49.5399 41.3042 50.3516 39.002 50.3516V52.3516C41.856 52.3516 44.1327 51.2999 45.6706 49.1359L44.0404 47.9773ZM39.002 50.3516C36.7464 50.3516 35.1241 49.5564 33.9885 48.016L32.3787 49.2028C33.9384 51.3186 36.195 52.3516 39.002 52.3516V50.3516ZM33.9903 48.0185C32.8164 46.4158 32.1434 43.9836 32.1093 40.5837L30.1094 40.6038C30.1456 44.2117 30.8554 47.1232 32.3769 49.2003L33.9903 48.0185ZM32.1094 40.5938V36.0059H30.1094V40.5938H32.1094ZM32.1094 36.0059C32.1094 32.5061 32.7637 30.0257 33.9242 28.4171L32.3023 27.2469C30.791 29.3415 30.1094 32.3103 30.1094 36.0059H32.1094ZM33.9242 28.4171C35.0468 26.8613 36.6756 26.0547 38.9668 26.0547V24.0547C36.1252 24.0547 33.8517 25.0996 32.3023 27.2469L33.9242 28.4171ZM38.9668 26.0547C41.23 26.0547 42.8453 26.838 43.9657 28.3416L45.5695 27.1467C44.018 25.0644 41.7661 24.0547 38.9668 24.0547V26.0547ZM43.9676 28.3441C45.123 29.8846 45.7964 32.2703 45.8419 35.6502L47.8417 35.6233C47.7935 32.0422 47.0841 29.1661 45.5676 27.1441L43.9676 28.3441ZM45.8418 35.6367V40.3301H47.8418V35.6367H45.8418ZM45.7324 35.7422C45.7324 32.7322 45.244 30.2924 44.133 28.5582L42.449 29.6371C43.2599 30.9029 43.7324 32.8928 43.7324 35.7422H45.7324ZM44.136 28.5629C42.9848 26.7436 41.2066 25.8477 38.9668 25.8477V27.8477C40.5942 27.8477 41.6988 28.4517 42.446 29.6324L44.136 28.5629ZM38.9668 25.8477C36.7649 25.8477 35.005 26.7229 33.8416 28.4964L35.5139 29.5934C36.2723 28.4373 37.3718 27.8477 38.9668 27.8477V25.8477ZM33.8416 28.4964C32.728 30.194 32.2253 32.5813 32.2012 35.5231L34.2011 35.5394C34.2239 32.7624 34.7056 30.8255 35.5139 29.5934L33.8416 28.4964ZM32.2012 35.5312V40.5586H34.2012V35.5312H32.2012ZM32.2012 40.5586C32.2012 43.5642 32.7038 46.0166 33.8341 47.7927L35.5214 46.719C34.6829 45.4014 34.2012 43.389 34.2012 40.5586H32.2012ZM33.837 47.7973C35.0227 49.6387 36.7857 50.5762 39.002 50.5762V48.5762C37.4447 48.5762 36.3249 47.9668 35.5185 46.7145L33.837 47.7973ZM39.002 50.5762C41.1997 50.5762 42.9452 49.6614 44.0998 47.845L42.4119 46.7721C41.6446 47.9793 40.5542 48.5762 39.002 48.5762V50.5762ZM44.0968 47.8497C45.2184 46.1066 45.7204 43.6691 45.7324 40.6681L43.7324 40.66C43.721 43.4949 43.2387 45.4872 42.4149 46.7675L44.0968 47.8497ZM45.7324 40.6641V35.7422H43.7324V40.6641H45.7324Z" fill="white"/>
</svg>
