<svg width="78" height="78" viewBox="0 0 78 78" fill="none" xmlns="http://www.w3.org/2000/svg">
<circle opacity="0.25" cx="39" cy="39" r="39" fill="#323232"/>
<path d="M41.1992 51H39.0898V27.9375L32.1289 30.5215V28.5527L40.8477 25.3184H41.1992V51Z" fill="white"/>
<path d="M41.1992 51V52H42.1992V51H41.1992ZM39.0898 51H38.0898V52H39.0898V51ZM39.0898 27.9375H40.0898V26.4996L38.7418 27L39.0898 27.9375ZM32.1289 30.5215H31.1289V31.9594L32.4769 31.459L32.1289 30.5215ZM32.1289 28.5527L31.7811 27.6152L31.1289 27.8571V28.5527H32.1289ZM40.8477 25.3184V24.3184H40.6681L40.4998 24.3808L40.8477 25.3184ZM41.1992 25.3184H42.1992V24.3184H41.1992V25.3184ZM41.1992 50H39.0898V52H41.1992V50ZM40.0898 51V27.9375H38.0898V51H40.0898ZM38.7418 27L31.7809 29.584L32.4769 31.459L39.4379 28.875L38.7418 27ZM33.1289 30.5215V28.5527H31.1289V30.5215H33.1289ZM32.4767 29.4903L41.1955 26.2559L40.4998 24.3808L31.7811 27.6152L32.4767 29.4903ZM40.8477 26.3184H41.1992V24.3184H40.8477V26.3184ZM40.1992 25.3184V51H42.1992V25.3184H40.1992Z" fill="white"/>
</svg>
