<svg width="78" height="78" viewBox="0 0 78 78" fill="none" xmlns="http://www.w3.org/2000/svg">
<circle opacity="0.25" cx="39" cy="39" r="39" fill="#323232"/>
<path d="M47.4395 51H31.4082V49.3828L40.1797 39.4336C41.6328 37.7578 42.6406 36.375 43.2031 35.2852C43.7656 34.1953 44.0469 33.1348 44.0469 32.1035C44.0469 30.4863 43.5723 29.209 42.623 28.2715C41.6738 27.3223 40.3672 26.8477 38.7031 26.8477C36.9805 26.8477 35.5859 27.3984 34.5195 28.5C33.4648 29.6016 32.9375 31.0312 32.9375 32.7891H30.8457C30.8457 31.3477 31.168 30.0352 31.8125 28.8516C32.4688 27.668 33.3945 26.7422 34.5898 26.0742C35.7969 25.3945 37.168 25.0547 38.7031 25.0547C41.0469 25.0547 42.875 25.6699 44.1875 26.9004C45.5117 28.1309 46.1738 29.8066 46.1738 31.9277C46.1738 33.123 45.7988 34.4297 45.0488 35.8477C44.3105 37.2656 43.0039 39.0352 41.1289 41.1562L33.9922 49.2246H47.4395V51Z" fill="white"/>
<path d="M47.4395 51V52H48.4395V51H47.4395ZM31.4082 51H30.4082V52H31.4082V51ZM31.4082 49.3828L30.6581 48.7215L30.4082 49.0049V49.3828H31.4082ZM40.1797 39.4336L40.9298 40.0949L40.9352 40.0887L40.1797 39.4336ZM42.623 28.2715L41.9159 28.9786L41.9203 28.983L42.623 28.2715ZM34.5195 28.5L33.801 27.8044L33.7972 27.8084L34.5195 28.5ZM32.9375 32.7891V33.7891H33.9375V32.7891H32.9375ZM30.8457 32.7891H29.8457V33.7891H30.8457V32.7891ZM31.8125 28.8516L30.9379 28.3666L30.9343 28.3733L31.8125 28.8516ZM34.5898 26.0742L35.0777 26.9472L35.0805 26.9456L34.5898 26.0742ZM44.1875 26.9004L43.5036 27.6299L43.5068 27.633L44.1875 26.9004ZM45.0488 35.8477L44.1648 35.3801L44.1619 35.3858L45.0488 35.8477ZM41.1289 41.1562L41.8779 41.8188L41.8781 41.8186L41.1289 41.1562ZM33.9922 49.2246L33.2432 48.5621L31.7726 50.2246H33.9922V49.2246ZM47.4395 49.2246H48.4395V48.2246H47.4395V49.2246ZM47.4395 50H31.4082V52H47.4395V50ZM32.4082 51V49.3828H30.4082V51H32.4082ZM32.1583 50.0441L40.9298 40.0949L39.4296 38.7723L30.6581 48.7215L32.1583 50.0441ZM40.9352 40.0887C42.4057 38.3929 43.4747 36.9393 44.0917 35.7438L42.3145 34.8265C41.8065 35.8107 40.8599 37.1228 39.4242 38.7785L40.9352 40.0887ZM44.0917 35.7438C44.7137 34.5389 45.0469 33.3219 45.0469 32.1035H43.0469C43.0469 32.9476 42.8176 33.8518 42.3145 34.8265L44.0917 35.7438ZM45.0469 32.1035C45.0469 30.2796 44.5044 28.7241 43.3257 27.56L41.9203 28.983C42.6401 29.6939 43.0469 30.6931 43.0469 32.1035H45.0469ZM43.3302 27.5644C42.1506 26.3849 40.5651 25.8477 38.7031 25.8477V27.8477C40.1693 27.8477 41.197 28.2597 41.9159 28.9786L43.3302 27.5644ZM38.7031 25.8477C36.7464 25.8477 35.0799 26.4834 33.8011 27.8045L35.238 29.1955C36.0919 28.3135 37.2146 27.8477 38.7031 27.8477V25.8477ZM33.7972 27.8084C32.537 29.1246 31.9375 30.8159 31.9375 32.7891H33.9375C33.9375 31.2466 34.3926 30.0785 35.2418 29.1916L33.7972 27.8084ZM32.9375 31.7891H30.8457V33.7891H32.9375V31.7891ZM31.8457 32.7891C31.8457 31.5028 32.1316 30.3565 32.6907 29.3298L30.9343 28.3733C30.2043 29.7138 29.8457 31.1925 29.8457 32.7891H31.8457ZM32.6871 29.3365C33.2519 28.3177 34.0429 27.5254 35.0777 26.9472L34.102 25.2013C32.7462 25.9589 31.6856 27.0182 30.9379 28.3667L32.6871 29.3365ZM35.0805 26.9456C36.122 26.3591 37.3208 26.0547 38.7031 26.0547V24.0547C37.0151 24.0547 35.4717 24.43 34.0992 25.2029L35.0805 26.9456ZM38.7031 26.0547C40.8721 26.0547 42.4271 26.6208 43.5036 27.6299L44.8714 26.1709C43.3229 24.7191 41.2216 24.0547 38.7031 24.0547V26.0547ZM43.5068 27.633C44.5918 28.6412 45.1738 30.032 45.1738 31.9277H47.1738C47.1738 29.5813 46.4316 27.6205 44.8682 26.1678L43.5068 27.633ZM45.1738 31.9277C45.1738 32.9139 44.8636 34.059 44.1649 35.3801L45.9328 36.3152C46.734 34.8004 47.1738 33.3321 47.1738 31.9277H45.1738ZM44.1619 35.3858C43.4794 36.6967 42.2353 38.3948 40.3797 40.4939L41.8781 41.8186C43.7725 39.6755 45.1417 37.8346 45.9358 36.3095L44.1619 35.3858ZM40.3799 40.4937L33.2432 48.5621L34.7412 49.8871L41.8779 41.8188L40.3799 40.4937ZM33.9922 50.2246H47.4395V48.2246H33.9922V50.2246ZM46.4395 49.2246V51H48.4395V49.2246H46.4395Z" fill="white"/>
</svg>
