<svg width="78" height="78" viewBox="0 0 78 78" fill="none" xmlns="http://www.w3.org/2000/svg">
<circle opacity="0.25" cx="39" cy="39" r="39" fill="#323232"/>
<path d="M36.084 37.0605H38.2637C39.4707 37.0605 40.5254 36.8496 41.4277 36.4277C42.3301 35.9941 43.0156 35.4082 43.4844 34.6699C43.9648 33.9199 44.2051 33.0586 44.2051 32.0859C44.2051 30.4453 43.7422 29.1621 42.8164 28.2363C41.8906 27.3105 40.5605 26.8477 38.8262 26.8477C37.1855 26.8477 35.8379 27.334 34.7832 28.3066C33.7402 29.2676 33.2188 30.5391 33.2188 32.1211H31.1094C31.1094 30.7969 31.4434 29.5898 32.1113 28.5C32.7793 27.3984 33.7051 26.5488 34.8887 25.9512C36.0723 25.3535 37.3848 25.0547 38.8262 25.0547C41.1465 25.0547 42.9746 25.6875 44.3105 26.9531C45.6465 28.2188 46.3145 29.9531 46.3145 32.1562C46.3145 33.3867 45.9219 34.5234 45.1367 35.5664C44.3633 36.5977 43.2969 37.3711 41.9375 37.8867C43.5312 38.332 44.7383 39.0996 45.5586 40.1895C46.3789 41.2676 46.7891 42.5566 46.7891 44.0566C46.7891 46.248 46.0742 48.0117 44.6445 49.3477C43.2148 50.6836 41.3047 51.3516 38.9141 51.3516C37.3906 51.3516 35.9902 51.0469 34.7129 50.4375C33.4473 49.8281 32.4629 48.9785 31.7598 47.8887C31.0684 46.7871 30.7227 45.5098 30.7227 44.0566H32.832C32.832 45.6855 33.4004 47.0156 34.5371 48.0469C35.6738 49.0664 37.1328 49.5762 38.9141 49.5762C40.7305 49.5762 42.1426 49.1133 43.1504 48.1875C44.1699 47.25 44.6797 45.8965 44.6797 44.127C44.6797 42.416 44.1289 41.1094 43.0273 40.207C41.9375 39.3047 40.3262 38.8535 38.1934 38.8535H36.084V37.0605Z" fill="white"/>
<path d="M36.084 37.0605V36.0605H35.084V37.0605H36.084ZM41.4277 36.4277L41.8513 37.3337L41.8608 37.3291L41.4277 36.4277ZM43.4844 34.6699L42.6423 34.1305L42.6402 34.1339L43.4844 34.6699ZM34.7832 28.3066L35.4608 29.0421L35.4611 29.0418L34.7832 28.3066ZM33.2188 32.1211V33.1211H34.2188V32.1211H33.2188ZM31.1094 32.1211H30.1094V33.1211H31.1094V32.1211ZM32.1113 28.5L32.9639 29.0226L32.9664 29.0185L32.1113 28.5ZM45.1367 35.5664L44.3378 34.965L44.3367 34.9664L45.1367 35.5664ZM41.9375 37.8867L41.5828 36.9517L38.7376 38.0309L41.6684 38.8498L41.9375 37.8867ZM45.5586 40.1895L44.7596 40.7908L44.7628 40.795L45.5586 40.1895ZM34.7129 50.4375L34.2791 51.3385L34.2823 51.3401L34.7129 50.4375ZM31.7598 47.8887L30.9127 48.4203L30.9195 48.4308L31.7598 47.8887ZM30.7227 44.0566V43.0566H29.7227V44.0566H30.7227ZM32.832 44.0566H33.832V43.0566H32.832V44.0566ZM34.5371 48.0469L33.8652 48.7875L33.8694 48.7913L34.5371 48.0469ZM43.1504 48.1875L43.8269 48.9239L43.8273 48.9236L43.1504 48.1875ZM43.0273 40.207L42.3896 40.9773L42.3937 40.9806L43.0273 40.207ZM36.084 38.8535H35.084V39.8535H36.084V38.8535ZM36.084 38.0605H38.2637V36.0605H36.084V38.0605ZM38.2637 38.0605C39.5866 38.0605 40.7913 37.8292 41.8513 37.3336L41.0042 35.5219C40.2595 35.87 39.3548 36.0605 38.2637 36.0605V38.0605ZM41.8608 37.3291C42.9067 36.8265 43.7458 36.1239 44.3286 35.2059L42.6402 34.1339C42.2855 34.6926 41.7534 35.1618 40.9946 35.5264L41.8608 37.3291ZM44.3264 35.2093C44.9195 34.2836 45.2051 33.2315 45.2051 32.0859H43.2051C43.2051 32.8857 43.0102 33.5562 42.6423 34.1305L44.3264 35.2093ZM45.2051 32.0859C45.2051 30.2509 44.6816 28.6873 43.5235 27.5292L42.1093 28.9434C42.8028 29.6369 43.2051 30.6397 43.2051 32.0859H45.2051ZM43.5235 27.5292C42.3554 26.3611 40.7366 25.8477 38.8262 25.8477V27.8477C40.3845 27.8477 41.4259 28.26 42.1093 28.9434L43.5235 27.5292ZM38.8262 25.8477C36.973 25.8477 35.3712 26.404 34.1053 27.5715L35.4611 29.0418C36.3045 28.2639 37.3981 27.8477 38.8262 27.8477V25.8477ZM34.1056 27.5712C32.8322 28.7444 32.2188 30.2954 32.2188 32.1211H34.2188C34.2188 30.7827 34.6483 29.7907 35.4608 29.0421L34.1056 27.5712ZM33.2188 31.1211H31.1094V33.1211H33.2188V31.1211ZM32.1094 32.1211C32.1094 30.9744 32.3959 29.9493 32.9639 29.0226L31.2587 27.9774C30.4908 29.2304 30.1094 30.6194 30.1094 32.1211H32.1094ZM32.9664 29.0185C33.5343 28.0819 34.3178 27.3597 35.3394 26.8438L34.4379 25.0585C33.0923 25.738 32.0243 26.715 31.2563 27.9815L32.9664 29.0185ZM35.3394 26.8438C36.3713 26.3228 37.5274 26.0547 38.8262 26.0547V24.0547C37.2421 24.0547 35.7732 24.3843 34.4379 25.0585L35.3394 26.8438ZM38.8262 26.0547C40.9603 26.0547 42.5177 26.6321 43.6228 27.6791L44.9983 26.2272C43.4315 24.7429 41.3326 24.0547 38.8262 24.0547V26.0547ZM43.6228 27.6791C44.7206 28.7191 45.3145 30.1692 45.3145 32.1562H47.3145C47.3145 29.737 46.5724 27.7184 44.9983 26.2272L43.6228 27.6791ZM45.3145 32.1562C45.3145 33.156 45.0009 34.0841 44.3378 34.965L45.9356 36.1678C46.8428 34.9628 47.3145 33.6174 47.3145 32.1562H45.3145ZM44.3367 34.9664C43.6911 35.8273 42.7883 36.4945 41.5828 36.9517L42.2922 38.8217C43.8054 38.2477 45.0355 37.368 45.9367 36.1664L44.3367 34.9664ZM41.6684 38.8498C43.0969 39.249 44.0977 39.9114 44.7596 40.7908L46.3576 39.5881C45.3789 38.2878 43.9656 37.4151 42.2066 36.9236L41.6684 38.8498ZM44.7628 40.795C45.4364 41.6803 45.7891 42.7506 45.7891 44.0566H47.7891C47.7891 42.3627 47.3214 40.8549 46.3544 39.5839L44.7628 40.795ZM45.7891 44.0566C45.7891 46.0078 45.1638 47.4939 43.9618 48.617L45.3273 50.0783C46.9847 48.5296 47.7891 46.4883 47.7891 44.0566H45.7891ZM43.9618 48.617C42.7565 49.7433 41.1104 50.3516 38.9141 50.3516V52.3516C41.499 52.3516 43.6732 51.6239 45.3273 50.0783L43.9618 48.617ZM38.9141 50.3516C37.528 50.3516 36.2762 50.0754 35.1435 49.5349L34.2823 51.3401C35.7042 52.0184 37.2532 52.3516 38.9141 52.3516V50.3516ZM35.1467 49.5365C34.0327 49.0001 33.1951 48.2688 32.6001 47.3465L30.9195 48.4308C31.7307 49.6882 32.8618 50.6561 34.2791 51.3385L35.1467 49.5365ZM32.6067 47.3571C32.0268 46.433 31.7227 45.3444 31.7227 44.0566H29.7227C29.7227 45.6751 30.11 47.1412 30.9128 48.4203L32.6067 47.3571ZM30.7227 45.0566H32.832V43.0566H30.7227V45.0566ZM31.832 44.0566C31.832 45.9481 32.5055 47.554 33.8652 48.7875L35.209 47.3062C34.2953 46.4773 33.832 45.4229 33.832 44.0566H31.832ZM33.8694 48.7913C35.2197 50.0024 36.93 50.5762 38.9141 50.5762V48.5762C37.3357 48.5762 36.128 48.1305 35.2048 47.3024L33.8694 48.7913ZM38.9141 50.5762C40.8972 50.5762 42.581 50.0685 43.8269 48.9239L42.4739 47.4511C41.7042 48.1581 40.5637 48.5762 38.9141 48.5762V50.5762ZM43.8273 48.9236C45.1065 47.7473 45.6797 46.0937 45.6797 44.127H43.6797C43.6797 45.6993 43.2333 46.7527 42.4735 47.4514L43.8273 48.9236ZM45.6797 44.127C45.6797 42.1831 45.0416 40.5644 43.661 39.4334L42.3937 40.9806C43.2162 41.6544 43.6797 42.6489 43.6797 44.127H45.6797ZM43.6651 39.4368C42.3245 38.3269 40.4456 37.8535 38.1934 37.8535V39.8535C40.2068 39.8535 41.5505 40.2825 42.3896 40.9773L43.6651 39.4368ZM38.1934 37.8535H36.084V39.8535H38.1934V37.8535ZM37.084 38.8535V37.0605H35.084V38.8535H37.084Z" fill="white"/>
</svg>
