<svg width="78" height="78" viewBox="0 0 78 78" fill="none" xmlns="http://www.w3.org/2000/svg">
<circle opacity="0.25" cx="39" cy="39" r="39" fill="#323232"/>
<path d="M44.3281 42.7559H48.3184V44.5312H44.3281V51H42.2188V44.5312H30.1777V43.3359L42.0254 25.4062H44.3281V42.7559ZM32.7617 42.7559H42.2188V28.1309L41.2871 29.748L32.7617 42.7559Z" fill="white"/>
<path d="M44.3281 42.7559H43.3281V43.7559H44.3281V42.7559ZM48.3184 42.7559H49.3184V41.7559H48.3184V42.7559ZM48.3184 44.5312V45.5312H49.3184V44.5312H48.3184ZM44.3281 44.5312V43.5312H43.3281V44.5312H44.3281ZM44.3281 51V52H45.3281V51H44.3281ZM42.2188 51H41.2188V52H42.2188V51ZM42.2188 44.5312H43.2188V43.5312H42.2188V44.5312ZM30.1777 44.5312H29.1777V45.5312H30.1777V44.5312ZM30.1777 43.3359L29.3434 42.7846L29.1777 43.0354V43.3359H30.1777ZM42.0254 25.4062V24.4062H41.4876L41.1911 24.855L42.0254 25.4062ZM44.3281 25.4062H45.3281V24.4062H44.3281V25.4062ZM32.7617 42.7559L31.9253 42.2077L30.9107 43.7559H32.7617V42.7559ZM42.2188 42.7559V43.7559H43.2188V42.7559H42.2188ZM42.2188 28.1309H43.2188V24.3917L41.3523 27.6317L42.2188 28.1309ZM41.2871 29.748L42.1235 30.2962L42.1392 30.2722L42.1536 30.2472L41.2871 29.748ZM44.3281 43.7559H48.3184V41.7559H44.3281V43.7559ZM47.3184 42.7559V44.5312H49.3184V42.7559H47.3184ZM48.3184 43.5312H44.3281V45.5312H48.3184V43.5312ZM43.3281 44.5312V51H45.3281V44.5312H43.3281ZM44.3281 50H42.2188V52H44.3281V50ZM43.2188 51V44.5312H41.2188V51H43.2188ZM42.2188 43.5312H30.1777V45.5312H42.2188V43.5312ZM31.1777 44.5312V43.3359H29.1777V44.5312H31.1777ZM31.012 43.8872L42.8597 25.9575L41.1911 24.855L29.3434 42.7846L31.012 43.8872ZM42.0254 26.4062H44.3281V24.4062H42.0254V26.4062ZM43.3281 25.4062V42.7559H45.3281V25.4062H43.3281ZM32.7617 43.7559H42.2188V41.7559H32.7617V43.7559ZM43.2188 42.7559V28.1309H41.2188V42.7559H43.2188ZM41.3523 27.6317L40.4206 29.2489L42.1536 30.2472L43.0852 28.63L41.3523 27.6317ZM40.4507 29.1999L31.9253 42.2077L33.5981 43.304L42.1235 30.2962L40.4507 29.1999Z" fill="white"/>
</svg>
