<svg width="78" height="78" viewBox="0 0 78 78" fill="none" xmlns="http://www.w3.org/2000/svg">
<circle opacity="0.25" cx="39" cy="39" r="39" fill="#323232"/>
<path d="M32.832 37.8867L34.0801 25.4062H46.877V27.3574H35.8906L34.9941 36.0059C36.3652 35.0684 37.9707 34.5996 39.8105 34.5996C42.1191 34.5996 43.959 35.3496 45.3301 36.8496C46.7012 38.3496 47.3867 40.3477 47.3867 42.8438C47.3867 45.5391 46.7188 47.6309 45.3828 49.1191C44.0469 50.6074 42.166 51.3516 39.7402 51.3516C37.5137 51.3516 35.709 50.7305 34.3262 49.4883C32.9434 48.2461 32.1523 46.5059 31.9531 44.2676H33.9746C34.1738 46.0137 34.7656 47.3379 35.75 48.2402C36.7344 49.1309 38.0645 49.5762 39.7402 49.5762C41.5684 49.5762 42.9453 48.9961 43.8711 47.8359C44.8086 46.6758 45.2773 45.0234 45.2773 42.8789C45.2773 41.0039 44.7559 39.4746 43.7129 38.291C42.6699 37.1074 41.2461 36.5156 39.4414 36.5156C38.4453 36.5156 37.5781 36.6445 36.8398 36.9023C36.1016 37.1484 35.3223 37.6348 34.502 38.3613L32.832 37.8867Z" fill="white"/>
<path d="M32.832 37.8867L31.837 37.7872L31.7537 38.6199L32.5586 38.8486L32.832 37.8867ZM34.0801 25.4062V24.4062H33.1751L33.085 25.3067L34.0801 25.4062ZM46.877 25.4062H47.877V24.4062H46.877V25.4062ZM46.877 27.3574V28.3574H47.877V27.3574H46.877ZM35.8906 27.3574V26.3574H34.9889L34.896 27.2543L35.8906 27.3574ZM34.9941 36.0059L33.9995 35.9028L33.7769 38.0496L35.5586 36.8313L34.9941 36.0059ZM34.3262 49.4883L33.6579 50.2322L34.3262 49.4883ZM31.9531 44.2676V43.2676H30.8602L30.9571 44.3562L31.9531 44.2676ZM33.9746 44.2676L34.9682 44.1542L34.867 43.2676H33.9746V44.2676ZM35.75 48.2402L35.0743 48.9774L35.0791 48.9818L35.75 48.2402ZM43.8711 47.8359L43.0933 47.2074L43.0895 47.2122L43.8711 47.8359ZM36.8398 36.9023L37.1561 37.851L37.1628 37.8488L37.1695 37.8464L36.8398 36.9023ZM34.502 38.3613L34.2286 39.3232L34.7552 39.4729L35.165 39.1099L34.502 38.3613ZM33.8271 37.9862L35.0751 25.5058L33.085 25.3067L31.837 37.7872L33.8271 37.9862ZM34.0801 26.4062H46.877V24.4062H34.0801V26.4062ZM45.877 25.4062V27.3574H47.877V25.4062H45.877ZM46.877 26.3574H35.8906V28.3574H46.877V26.3574ZM34.896 27.2543L33.9995 35.9028L35.9888 36.109L36.8853 27.4605L34.896 27.2543ZM35.5586 36.8313C36.7457 36.0197 38.1495 35.5996 39.8105 35.5996V33.5996C37.7919 33.5996 35.9848 34.1171 34.4297 35.1804L35.5586 36.8313ZM39.8105 35.5996C41.8805 35.5996 43.437 36.2608 44.592 37.5243L46.0682 36.1749C44.4809 34.4385 42.3578 33.5996 39.8105 33.5996V35.5996ZM44.592 37.5243C45.7582 38.8002 46.3867 40.5376 46.3867 42.8438H48.3867C48.3867 40.1577 47.6441 37.899 46.0682 36.1749L44.592 37.5243ZM46.3867 42.8438C46.3867 45.3793 45.7598 47.2021 44.6386 48.4511L46.127 49.7871C47.6777 48.0596 48.3867 45.6988 48.3867 42.8438H46.3867ZM44.6386 48.4511C43.5322 49.6838 41.9477 50.3516 39.7402 50.3516V52.3516C42.3843 52.3516 44.5616 51.5311 46.127 49.7871L44.6386 48.4511ZM39.7402 50.3516C37.709 50.3516 36.1587 49.7903 34.9944 48.7444L33.6579 50.2322C35.2592 51.6707 37.3184 52.3516 39.7402 52.3516V50.3516ZM34.9944 48.7444C33.8376 47.7052 33.1309 46.2208 32.9492 44.1789L30.9571 44.3562C31.1738 46.7909 32.0491 48.787 33.6579 50.2322L34.9944 48.7444ZM31.9531 45.2676H33.9746V43.2676H31.9531V45.2676ZM32.9811 44.3809C33.1988 46.2895 33.8625 47.8666 35.0743 48.9774L36.4257 47.5031C35.6688 46.8092 35.1488 45.7378 34.9682 44.1542L32.9811 44.3809ZM35.0791 48.9818C36.2919 50.0791 37.884 50.5762 39.7402 50.5762V48.5762C38.2449 48.5762 37.1769 48.1827 36.4209 47.4987L35.0791 48.9818ZM39.7402 50.5762C41.7949 50.5762 43.4935 49.9123 44.6527 48.4597L43.0895 47.2122C42.3971 48.0798 41.3418 48.5762 39.7402 48.5762V50.5762ZM44.6489 48.4645C45.7814 47.0629 46.2773 45.1546 46.2773 42.8789H44.2773C44.2773 44.8923 43.8358 46.2886 43.0933 47.2074L44.6489 48.4645ZM46.2773 42.8789C46.2773 40.8088 45.6964 39.0294 44.4632 37.6299L42.9626 38.9521C43.8153 39.9198 44.2773 41.199 44.2773 42.8789H46.2773ZM44.4632 37.6299C43.202 36.1987 41.4874 35.5156 39.4414 35.5156V37.5156C41.0048 37.5156 42.1378 38.0161 42.9626 38.9521L44.4632 37.6299ZM39.4414 35.5156C38.3623 35.5156 37.3789 35.6549 36.5102 35.9583L37.1695 37.8464C37.7773 37.6342 38.5283 37.5156 39.4414 37.5156V35.5156ZM36.5236 35.9537C35.6165 36.256 34.7219 36.8307 33.8389 37.6127L35.165 39.1099C35.9226 38.4389 36.5866 38.0409 37.1561 37.851L36.5236 35.9537ZM34.7753 37.3994L33.1054 36.9248L32.5586 38.8486L34.2286 39.3232L34.7753 37.3994Z" fill="white"/>
</svg>
