<svg width="78" height="78" viewBox="0 0 78 78" fill="none" xmlns="http://www.w3.org/2000/svg">
<circle opacity="0.25" cx="39" cy="39" r="39" fill="#323232"/>
<path d="M43.8184 25.2129V27.0586H43.5723C40.5137 27.0586 38.1055 27.9609 36.3477 29.7656C34.5898 31.5586 33.6172 34.0547 33.4297 37.2539C34.1328 36.2812 35.0293 35.5312 36.1191 35.0039C37.209 34.4648 38.4277 34.1953 39.7754 34.1953C42.0254 34.1953 43.8125 34.9746 45.1367 36.5332C46.4727 38.0801 47.1406 40.1074 47.1406 42.6152C47.1406 44.2793 46.8301 45.7793 46.209 47.1152C45.5879 48.4512 44.6973 49.4941 43.5371 50.2441C42.377 50.9824 41.0527 51.3516 39.5645 51.3516C37.1152 51.3516 35.123 50.4668 33.5879 48.6973C32.0527 46.916 31.2852 44.6191 31.2852 41.8066V39.6973C31.2852 35.1152 32.3281 31.5703 34.4141 29.0625C36.5 26.543 39.459 25.2598 43.291 25.2129H43.8184ZM39.4414 36.0059C38.1055 36.0059 36.8574 36.4043 35.6973 37.2012C34.5488 37.9863 33.7812 38.9883 33.3945 40.207V42C33.3945 44.2266 33.9629 46.043 35.0996 47.4492C36.248 48.8555 37.7363 49.5586 39.5645 49.5586C41.2051 49.5586 42.5293 48.9082 43.5371 47.6074C44.5566 46.3066 45.0664 44.666 45.0664 42.6855C45.0664 40.6699 44.5566 39.0527 43.5371 37.834C42.5293 36.6152 41.1641 36.0059 39.4414 36.0059Z" fill="white"/>
<path d="M43.8184 25.2129H44.8184V24.2129H43.8184V25.2129ZM43.8184 27.0586V28.0586H44.8184V27.0586H43.8184ZM36.3477 29.7656L37.0617 30.4657L37.064 30.4634L36.3477 29.7656ZM33.4297 37.2539L32.4314 37.1954L32.2307 40.6194L34.2401 37.8398L33.4297 37.2539ZM36.1191 35.0039L36.5547 35.9041L36.5625 35.9003L36.1191 35.0039ZM45.1367 36.5332L44.3746 37.1807L44.3799 37.1868L45.1367 36.5332ZM43.5371 50.2441L44.074 51.0878L44.08 51.0839L43.5371 50.2441ZM33.5879 48.6973L32.8304 49.3501L32.8325 49.3526L33.5879 48.6973ZM34.4141 29.0625L35.1829 29.702L35.1843 29.7002L34.4141 29.0625ZM43.291 25.2129L43.291 24.2128L43.2788 24.213L43.291 25.2129ZM35.6973 37.2012L36.2616 38.0267L36.2634 38.0255L35.6973 37.2012ZM33.3945 40.207L32.4414 39.9046L32.3945 40.0522V40.207H33.3945ZM35.0996 47.4492L34.3219 48.0779L34.3251 48.0818L35.0996 47.4492ZM43.5371 47.6074L42.75 46.9905L42.7466 46.995L43.5371 47.6074ZM43.5371 37.834L42.7665 38.4713L42.7701 38.4756L43.5371 37.834ZM42.8184 25.2129V27.0586H44.8184V25.2129H42.8184ZM43.8184 26.0586H43.5723V28.0586H43.8184V26.0586ZM43.5723 26.0586C40.3057 26.0586 37.6165 27.0297 35.6313 29.0679L37.064 30.4634C38.5944 28.8922 40.7216 28.0586 43.5723 28.0586V26.0586ZM35.6336 29.0656C33.6641 31.0744 32.629 33.8235 32.4314 37.1954L34.428 37.3124C34.6054 34.2859 35.5156 32.0428 37.0617 30.4657L35.6336 29.0656ZM34.2401 37.8398C34.8453 37.0025 35.6125 36.36 36.5547 35.9041L35.6836 34.1037C34.4461 34.7025 33.4203 35.56 32.6193 36.6681L34.2401 37.8398ZM36.5625 35.9003C37.5001 35.4365 38.5646 35.1953 39.7754 35.1953V33.1953C38.2908 33.1953 36.9178 33.4932 35.6758 34.1076L36.5625 35.9003ZM39.7754 35.1953C41.7651 35.1953 43.2609 35.8698 44.3746 37.1807L45.8988 35.8857C44.3641 34.0794 42.2857 33.1953 39.7754 33.1953V35.1953ZM44.3799 37.1868C45.5255 38.5133 46.1406 40.2908 46.1406 42.6152H48.1406C48.1406 39.9241 47.4198 37.6468 45.8935 35.8796L44.3799 37.1868ZM46.1406 42.6152C46.1406 44.1526 45.8544 45.5059 45.3022 46.6937L47.1158 47.5368C47.8058 46.0527 48.1406 44.406 48.1406 42.6152H46.1406ZM45.3022 46.6937C44.755 47.8705 43.9854 48.7635 42.9942 49.4043L44.08 51.0839C45.4091 50.2247 46.4207 49.0318 47.1158 47.5368L45.3022 46.6937ZM43.0002 49.4005C42.0137 50.0282 40.8788 50.3516 39.5645 50.3516V52.3516C41.2266 52.3516 42.7402 51.9366 44.074 51.0878L43.0002 49.4005ZM39.5645 50.3516C37.39 50.3516 35.6788 49.5814 34.3432 48.042L32.8325 49.3526C34.5673 51.3522 36.8404 52.3516 39.5645 52.3516V50.3516ZM34.3454 48.0444C32.9961 46.4788 32.2852 44.4287 32.2852 41.8066H30.2852C30.2852 44.8095 31.1094 47.3532 32.8304 49.3501L34.3454 48.0444ZM32.2852 41.8066V39.6973H30.2852V41.8066H32.2852ZM32.2852 39.6973C32.2852 35.2555 33.2968 31.9695 35.1829 29.702L33.6453 28.423C31.3595 31.1711 30.2852 34.975 30.2852 39.6973H32.2852ZM35.1843 29.7002C37.0501 27.4466 39.709 26.2568 43.3032 26.2128L43.2788 24.213C39.209 24.2627 35.9499 25.6393 33.6438 28.4248L35.1843 29.7002ZM43.291 26.2129H43.8184V24.2129H43.291V26.2129ZM39.4414 35.0059C37.8922 35.0059 36.4484 35.472 35.1311 36.3769L36.2634 38.0255C37.2664 37.3366 38.3188 37.0059 39.4414 37.0059V35.0059ZM35.1329 36.3757C33.8173 37.2751 32.9017 38.4538 32.4414 39.9046L34.3477 40.5095C34.6608 39.5227 35.2803 38.6976 36.2616 38.0267L35.1329 36.3757ZM32.3945 40.207V42H34.3945V40.207H32.3945ZM32.3945 42C32.3945 44.4009 33.0105 46.4555 34.3219 48.0779L35.8773 46.8206C34.9153 45.6305 34.3945 44.0523 34.3945 42H32.3945ZM34.3251 48.0818C35.665 49.7224 37.4385 50.5586 39.5645 50.5586V48.5586C38.0342 48.5586 36.8311 47.9885 35.8741 46.8167L34.3251 48.0818ZM39.5645 50.5586C41.5154 50.5586 43.1311 49.7643 44.3276 48.2199L42.7466 46.995C41.9275 48.0521 40.8947 48.5586 39.5645 48.5586V50.5586ZM44.3242 48.2243C45.5075 46.7145 46.0664 44.8438 46.0664 42.6855H44.0664C44.0664 44.4882 43.6058 45.8988 42.7501 46.9905L44.3242 48.2243ZM46.0664 42.6855C46.0664 40.4999 45.5109 38.635 44.3041 37.1924L42.7701 38.4756C43.6023 39.4705 44.0664 40.84 44.0664 42.6855H46.0664ZM44.3078 37.1967C43.0915 35.7259 41.4319 35.0059 39.4414 35.0059V37.0059C40.8962 37.0059 41.9671 37.5046 42.7665 38.4712L44.3078 37.1967Z" fill="white"/>
</svg>
