<svg width="78" height="78" viewBox="0 0 78 78" fill="none" xmlns="http://www.w3.org/2000/svg">
<circle opacity="0.25" cx="39" cy="39" r="39" fill="#323232"/>
<path d="M47.1758 26.6191L36.2422 51H34.0449L44.9082 27.1992H30.3535V25.4062H47.1758V26.6191Z" fill="white"/>
<path d="M47.1758 26.6191L48.0882 27.0283L48.1758 26.8331V26.6191H47.1758ZM36.2422 51V52H36.8897L37.1546 51.4092L36.2422 51ZM34.0449 51L33.1352 50.5848L32.4893 52H34.0449V51ZM44.9082 27.1992L45.8179 27.6144L46.4639 26.1992H44.9082V27.1992ZM30.3535 27.1992H29.3535V28.1992H30.3535V27.1992ZM30.3535 25.4062V24.4062H29.3535V25.4062H30.3535ZM47.1758 25.4062H48.1758V24.4062H47.1758V25.4062ZM46.2633 26.21L35.3297 50.5908L37.1546 51.4092L48.0882 27.0283L46.2633 26.21ZM36.2422 50H34.0449V52H36.2422V50ZM34.9546 51.4152L45.8179 27.6144L43.9985 26.784L33.1352 50.5848L34.9546 51.4152ZM44.9082 26.1992H30.3535V28.1992H44.9082V26.1992ZM31.3535 27.1992V25.4062H29.3535V27.1992H31.3535ZM30.3535 26.4062H47.1758V24.4062H30.3535V26.4062ZM46.1758 25.4062V26.6191H48.1758V25.4062H46.1758Z" fill="white"/>
</svg>
