<svg width="78" height="78" viewBox="0 0 78 78" fill="none" xmlns="http://www.w3.org/2000/svg">
<circle opacity="0.25" cx="39" cy="39" r="39" fill="#323232"/>
<path d="M46.4902 31.998C46.4902 33.3223 46.1035 34.5117 45.3301 35.5664C44.5566 36.6094 43.5371 37.377 42.2715 37.8691C43.748 38.373 44.9316 39.1875 45.8223 40.3125C46.7129 41.4375 47.1582 42.7383 47.1582 44.2148C47.1582 46.4062 46.4141 48.1465 44.9258 49.4355C43.4375 50.7129 41.4688 51.3516 39.0195 51.3516C36.5469 51.3516 34.5664 50.7129 33.0781 49.4355C31.6016 48.1582 30.8633 46.418 30.8633 44.2148C30.8633 42.7617 31.291 41.4668 32.1465 40.3301C33.002 39.1934 34.1738 38.373 35.6621 37.8691C34.3965 37.377 33.3887 36.6094 32.6387 35.5664C31.8887 34.5117 31.5137 33.3223 31.5137 31.998C31.5137 29.877 32.1934 28.1895 33.5527 26.9355C34.9238 25.6816 36.7344 25.0547 38.9844 25.0547C41.2344 25.0547 43.0449 25.6875 44.416 26.9531C45.7988 28.2188 46.4902 29.9004 46.4902 31.998ZM45.0488 44.2324C45.0488 42.6387 44.4805 41.332 43.3438 40.3125C42.207 39.2812 40.7539 38.7656 38.9844 38.7656C37.2148 38.7656 35.7676 39.2695 34.6426 40.2773C33.5176 41.2852 32.9551 42.6035 32.9551 44.2324C32.9551 45.8613 33.5 47.1621 34.5898 48.1348C35.6797 49.0957 37.1562 49.5762 39.0195 49.5762C40.8359 49.5762 42.2949 49.0957 43.3965 48.1348C44.498 47.1738 45.0488 45.873 45.0488 44.2324ZM44.3809 31.9805C44.3809 30.5156 43.8711 29.2969 42.8516 28.3242C41.8438 27.3398 40.5547 26.8477 38.9844 26.8477C37.3906 26.8477 36.0957 27.3223 35.0996 28.2715C34.1152 29.209 33.623 30.4453 33.623 31.9805C33.623 33.4805 34.1152 34.6875 35.0996 35.6016C36.0957 36.5156 37.3965 36.9727 39.002 36.9727C40.584 36.9727 41.873 36.5156 42.8691 35.6016C43.877 34.6758 44.3809 33.4688 44.3809 31.9805Z" fill="white"/>
<path d="M45.3301 35.5664L46.1333 36.1621L46.1365 36.1578L45.3301 35.5664ZM42.2715 37.8691L41.909 36.9371L39.3549 37.9304L41.9485 38.8155L42.2715 37.8691ZM44.9258 49.4355L45.5771 50.1944L45.5805 50.1914L44.9258 49.4355ZM33.0781 49.4355L32.4239 50.1918L32.4268 50.1944L33.0781 49.4355ZM35.6621 37.8691L35.9828 38.8163L38.5883 37.9341L36.0246 36.9371L35.6621 37.8691ZM32.6387 35.5664L31.8237 36.1459L31.8268 36.1502L32.6387 35.5664ZM33.5527 26.9355L32.8779 26.1976L32.8747 26.2005L33.5527 26.9355ZM44.416 26.9531L43.7377 27.6879L43.7409 27.6908L44.416 26.9531ZM43.3438 40.3125L42.6718 41.0531L42.6761 41.0569L43.3438 40.3125ZM34.5898 48.1348L33.924 48.8809L33.9285 48.8848L34.5898 48.1348ZM42.8516 28.3242L42.1528 29.0396L42.1613 29.0478L42.8516 28.3242ZM35.0996 28.2715L35.7893 28.9956L35.7895 28.9954L35.0996 28.2715ZM35.0996 35.6016L34.4191 36.3344L34.4235 36.3384L35.0996 35.6016ZM42.8691 35.6016L43.5453 36.3384L43.5456 36.338L42.8691 35.6016ZM45.4902 31.998C45.4902 33.1124 45.1697 34.0942 44.5237 34.975L46.1365 36.1578C47.0374 34.9293 47.4902 33.5321 47.4902 31.998H45.4902ZM44.5268 34.9707C43.871 35.8552 43.0074 36.51 41.909 36.9371L42.6339 38.8011C44.0668 38.2439 45.2423 37.3636 46.1333 36.1621L44.5268 34.9707ZM41.9485 38.8155C43.2598 39.2631 44.2772 39.9719 45.0382 40.9332L46.6063 39.6918C45.5861 38.4031 44.2363 37.483 42.5945 36.9227L41.9485 38.8155ZM45.0382 40.9332C45.7847 41.8761 46.1582 42.9565 46.1582 44.2148H48.1582C48.1582 42.52 47.6411 40.9989 46.6063 39.6918L45.0382 40.9332ZM46.1582 44.2148C46.1582 46.1529 45.5137 47.6034 44.2711 48.6797L45.5805 50.1914C47.3144 48.6896 48.1582 46.6596 48.1582 44.2148H46.1582ZM44.2745 48.6767C43.0092 49.7626 41.2912 50.3516 39.0195 50.3516V52.3516C41.6463 52.3516 43.8658 51.6631 45.5771 50.1944L44.2745 48.6767ZM39.0195 50.3516C36.7216 50.3516 34.993 49.7612 33.7294 48.6767L32.4268 50.1944C34.1398 51.6646 36.3721 52.3516 39.0195 52.3516V50.3516ZM33.7324 48.6793C32.505 47.6175 31.8633 46.1693 31.8633 44.2148H29.8633C29.8633 46.6667 30.6981 48.6989 32.4239 50.1918L33.7324 48.6793ZM31.8633 44.2148C31.8633 42.9736 32.2234 41.8908 32.9455 40.9314L31.3475 39.7288C30.3586 41.0428 29.8633 42.5498 29.8633 44.2148H31.8633ZM32.9455 40.9314C33.6674 39.9721 34.6644 39.2627 35.9828 38.8163L35.3414 36.922C33.6833 37.4834 32.3365 38.4146 31.3475 39.7288L32.9455 40.9314ZM36.0246 36.9371C34.9285 36.5109 34.081 35.8593 33.4506 34.9826L31.8268 36.1502C32.6963 37.3595 33.8645 38.243 35.2997 38.8011L36.0246 36.9371ZM33.4536 34.9869C32.827 34.1056 32.5137 33.1197 32.5137 31.998H30.5137C30.5137 33.5248 30.9504 34.9178 31.8237 36.1459L33.4536 34.9869ZM32.5137 31.998C32.5137 30.1111 33.1076 28.7066 34.2308 27.6706L32.8747 26.2005C31.2791 27.6723 30.5137 29.6428 30.5137 31.998H32.5137ZM34.2276 27.6735C35.3771 26.6222 36.9287 26.0547 38.9844 26.0547V24.0547C36.5401 24.0547 34.4705 24.7411 32.8779 26.1976L34.2276 27.6735ZM38.9844 26.0547C41.0376 26.0547 42.5879 26.6266 43.7377 27.6879L45.0943 26.2183C43.5019 24.7484 41.4311 24.0547 38.9844 24.0547V26.0547ZM43.7409 27.6908C44.8909 28.7434 45.4902 30.1439 45.4902 31.998H47.4902C47.4902 29.6568 46.7068 27.6941 45.0912 26.2155L43.7409 27.6908ZM46.0488 44.2324C46.0488 42.3687 45.3699 40.7865 44.0114 39.5681L42.6761 41.0569C43.591 41.8776 44.0488 42.9087 44.0488 44.2324H46.0488ZM44.0157 39.5719C42.667 38.3483 40.9617 37.7656 38.9844 37.7656V39.7656C40.5461 39.7656 41.7471 40.2142 42.6718 41.0531L44.0157 39.5719ZM38.9844 37.7656C37.0134 37.7656 35.3146 38.3328 33.9753 39.5325L35.3098 41.0222C36.2206 40.2063 37.4163 39.7656 38.9844 39.7656V37.7656ZM33.9753 39.5325C32.6206 40.7461 31.9551 42.3443 31.9551 44.2324H33.9551C33.9551 42.8627 34.4146 41.8242 35.3098 41.0222L33.9753 39.5325ZM31.9551 44.2324C31.9551 46.1097 32.5957 47.6954 33.924 48.8808L35.2557 47.3887C34.4043 46.6288 33.9551 45.613 33.9551 44.2324H31.9551ZM33.9285 48.8848C35.2478 50.0481 36.9834 50.5762 39.0195 50.5762V48.5762C37.3291 48.5762 36.1115 48.1433 35.2512 47.3847L33.9285 48.8848ZM39.0195 50.5762C41.0168 50.5762 42.729 50.044 44.0539 48.8883L42.7391 47.3812C41.8608 48.1474 40.655 48.5762 39.0195 48.5762V50.5762ZM44.0539 48.8883C45.4012 47.713 46.0488 46.1225 46.0488 44.2324H44.0488C44.0488 45.6236 43.5949 46.6347 42.7391 47.3812L44.0539 48.8883ZM45.3809 31.9805C45.3809 30.2544 44.7678 28.7703 43.5418 27.6007L42.1613 29.0478C42.9744 29.8235 43.3809 30.7768 43.3809 31.9805H45.3809ZM43.5503 27.6088C42.3335 26.4204 40.7832 25.8477 38.9844 25.8477V27.8477C40.3262 27.8477 41.354 28.2593 42.1528 29.0396L43.5503 27.6088ZM38.9844 25.8477C37.1774 25.8477 35.6212 26.3931 34.4097 27.5475L35.7895 28.9954C36.5702 28.2514 37.6038 27.8477 38.9844 27.8477V25.8477ZM34.41 27.5473C33.2009 28.6988 32.623 30.2105 32.623 31.9805H34.623C34.623 30.6801 35.0296 29.7191 35.7893 28.9956L34.41 27.5473ZM32.623 31.9805C32.623 33.7226 33.2061 35.208 34.4192 36.3344L35.7801 34.8688C35.0244 34.167 34.623 33.2383 34.623 31.9805H32.623ZM34.4235 36.3384C35.6377 37.4526 37.1959 37.9727 39.002 37.9727V35.9727C37.5971 35.9727 36.5537 35.5787 35.7757 34.8648L34.4235 36.3384ZM39.002 37.9727C40.789 37.9727 42.3338 37.4501 43.5453 36.3384L42.193 34.8648C41.4123 35.5812 40.379 35.9727 39.002 35.9727V37.9727ZM43.5456 36.338C44.779 35.2051 45.3809 33.7213 45.3809 31.9805H43.3809C43.3809 33.2162 42.975 34.1465 42.1926 34.8651L43.5456 36.338Z" fill="white"/>
</svg>
