<svg width="78" height="78" viewBox="0 0 78 78" fill="none" xmlns="http://www.w3.org/2000/svg">
<circle opacity="0.25" cx="39" cy="39" r="39" fill="#323232"/>
<path d="M44.5391 39.1523C43.7891 40.2539 42.8574 41.1094 41.7441 41.7188C40.6309 42.3164 39.4238 42.6152 38.123 42.6152C36.6699 42.6152 35.3867 42.2402 34.2734 41.4902C33.1602 40.7402 32.2988 39.7031 31.6895 38.3789C31.0801 37.0547 30.7754 35.6074 30.7754 34.0371C30.7754 32.3496 31.0977 30.8145 31.7422 29.4316C32.3984 28.0488 33.3066 26.9766 34.4668 26.2148C35.6387 25.4414 36.9863 25.0547 38.5098 25.0547C41.0762 25.0547 43.0742 25.957 44.5039 27.7617C45.9336 29.5547 46.6484 32.1035 46.6484 35.4082V37.3066C46.6484 41.9238 45.6641 45.3926 43.6953 47.7129C41.7266 50.0332 38.7207 51.1934 34.6777 51.1934H34.291L34.3086 49.3652H35.0469C38.1055 49.3184 40.4316 48.4512 42.0254 46.7637C43.6191 45.0762 44.457 42.5391 44.5391 39.1523ZM38.3867 40.8047C39.793 40.8047 41.0527 40.3887 42.166 39.5566C43.291 38.7129 44.0879 37.623 44.5566 36.2871V35.0742C44.5566 32.4727 44.0117 30.457 42.9219 29.0273C41.8438 27.5859 40.3848 26.8652 38.5449 26.8652C36.8809 26.8652 35.5156 27.5391 34.4492 28.8867C33.3828 30.2227 32.8496 31.9102 32.8496 33.9492C32.8496 35.9062 33.3594 37.541 34.3789 38.8535C35.4102 40.1543 36.7461 40.8047 38.3867 40.8047Z" fill="white"/>
<path d="M44.5391 39.1523L45.5388 39.1766L45.6209 35.7866L43.7125 38.5896L44.5391 39.1523ZM41.7441 41.7188L42.2171 42.5998L42.2243 42.5959L41.7441 41.7188ZM31.7422 29.4316L30.8387 29.0029L30.8358 29.0092L31.7422 29.4316ZM34.4668 26.2148L35.0156 27.0508L35.0176 27.0495L34.4668 26.2148ZM44.5039 27.7617L43.7201 28.3827L43.722 28.3852L44.5039 27.7617ZM34.291 51.1934L33.2911 51.1837L33.2814 52.1934H34.291V51.1934ZM34.3086 49.3652V48.3652H33.3182L33.3086 49.3556L34.3086 49.3652ZM35.0469 49.3652V50.3652H35.0545L35.0622 50.3651L35.0469 49.3652ZM42.166 39.5566L42.7647 40.3577L42.766 40.3566L42.166 39.5566ZM44.5566 36.2871L45.5002 36.6182L45.5566 36.4575V36.2871H44.5566ZM42.9219 29.0273L42.1211 29.6263L42.1266 29.6336L42.9219 29.0273ZM34.4492 28.8867L35.2308 29.5106L35.2334 29.5072L34.4492 28.8867ZM34.3789 38.8535L33.5891 39.467L33.5953 39.4748L34.3789 38.8535ZM43.7125 38.5896C43.0469 39.5671 42.2316 40.3119 41.264 40.8416L42.2243 42.5959C43.4833 41.9068 44.5312 40.9407 45.3657 39.7151L43.7125 38.5896ZM41.2711 40.8377C40.3077 41.3549 39.2638 41.6152 38.123 41.6152V43.6152C39.5838 43.6152 40.954 43.2779 42.2171 42.5998L41.2711 40.8377ZM38.123 41.6152C36.8518 41.6152 35.7666 41.2904 34.8322 40.6609L33.7147 42.3196C35.0068 43.1901 36.4881 43.6152 38.123 43.6152V41.6152ZM34.8322 40.6609C33.8839 40.0221 33.1374 39.1333 32.5979 37.9609L30.781 38.7969C31.4602 40.2729 32.4364 41.4584 33.7147 42.3196L34.8322 40.6609ZM32.5979 37.9609C32.0534 36.7777 31.7754 35.4744 31.7754 34.0371H29.7754C29.7754 35.7404 30.1068 37.3317 30.781 38.7969L32.5979 37.9609ZM31.7754 34.0371C31.7754 32.4799 32.072 31.0911 32.6486 29.8541L30.8358 29.0092C30.1233 30.5378 29.7754 32.2193 29.7754 34.0371H31.7754ZM32.6456 29.8604C33.2316 28.6257 34.0243 27.7017 35.0156 27.0508L33.918 25.3789C32.589 26.2515 31.5653 27.472 30.8388 29.0029L32.6456 29.8604ZM35.0176 27.0495C36.0121 26.3931 37.1648 26.0547 38.5098 26.0547V24.0547C36.8079 24.0547 35.2652 24.4897 33.916 25.3802L35.0176 27.0495ZM38.5098 26.0547C40.8106 26.0547 42.5035 26.847 43.7201 28.3827L45.2877 27.1408C43.6449 25.067 41.3418 24.0547 38.5098 24.0547V26.0547ZM43.722 28.3852C44.96 29.9376 45.6484 32.2329 45.6484 35.4082H47.6484C47.6484 31.9742 46.9072 29.1717 45.2858 27.1383L43.722 28.3852ZM45.6484 35.4082V37.3066H47.6484V35.4082H45.6484ZM45.6484 37.3066C45.6484 41.8046 44.6862 44.9994 42.9328 47.0659L44.4578 48.3599C46.6419 45.7857 47.6484 42.043 47.6484 37.3066H45.6484ZM42.9328 47.0659C41.2117 49.0944 38.5296 50.1934 34.6777 50.1934V52.1934C38.9118 52.1934 42.2415 50.972 44.4578 48.3599L42.9328 47.0659ZM34.6777 50.1934H34.291V52.1934H34.6777V50.1934ZM35.291 51.203L35.3085 49.3748L33.3086 49.3556L33.2911 51.1837L35.291 51.203ZM34.3086 50.3652H35.0469V48.3652H34.3086V50.3652ZM35.0622 50.3651C38.3012 50.3155 40.9199 49.3906 42.7524 47.4503L41.2984 46.077C39.9434 47.5118 37.9097 48.3212 35.0316 48.3654L35.0622 50.3651ZM42.7524 47.4503C44.5793 45.5159 45.4535 42.6986 45.5388 39.1766L43.5394 39.1281C43.4606 42.3795 42.659 44.6364 41.2984 46.077L42.7524 47.4503ZM38.3867 41.8047C40.006 41.8047 41.4763 41.3205 42.7647 40.3577L41.5674 38.7556C40.6291 39.4568 39.5799 39.8047 38.3867 39.8047V41.8047ZM42.766 40.3566C44.0506 39.3932 44.9664 38.1397 45.5002 36.6182L43.613 35.956C43.2094 37.1064 42.5314 38.0326 41.566 38.7566L42.766 40.3566ZM45.5566 36.2871V35.0742H43.5566V36.2871H45.5566ZM45.5566 35.0742C45.5566 32.3482 44.9875 30.0876 43.7172 28.4211L42.1266 29.6336C43.0359 30.8264 43.5566 32.5971 43.5566 35.0742H45.5566ZM43.7227 28.4284C42.4509 26.7281 40.6918 25.8652 38.5449 25.8652V27.8652C40.0778 27.8652 41.2366 28.4438 42.1211 29.6263L43.7227 28.4284ZM38.5449 25.8652C36.5638 25.8652 34.9139 26.688 33.665 28.2662L35.2334 29.5072C36.1174 28.3902 37.198 27.8652 38.5449 27.8652V25.8652ZM33.6677 28.2629C32.4339 29.8085 31.8496 31.7289 31.8496 33.9492H33.8496C33.8496 32.0915 34.3317 30.6368 35.2308 29.5106L33.6677 28.2629ZM31.8496 33.9492C31.8496 36.0874 32.4102 37.9492 33.5892 39.467L35.1686 38.2401C34.3086 37.1328 33.8496 35.7251 33.8496 33.9492H31.8496ZM33.5953 39.4748C34.8136 41.0115 36.4366 41.8047 38.3867 41.8047V39.8047C37.0556 39.8047 36.0067 39.2971 35.1625 38.2323L33.5953 39.4748Z" fill="white"/>
</svg>
