<svg width="78" height="78" viewBox="0 0 78 78" fill="none" xmlns="http://www.w3.org/2000/svg">
<circle opacity="0.75" cx="39" cy="39" r="39" fill="#323232"/>
<path d="M39.7656 37.6562H50.1484V40.2812H39.7656V51.5781H36.9297V40.2812H26.7578V37.6562H36.9297V26.7344H39.7656V37.6562Z" fill="white"/>
<path d="M39.7656 37.6562H38.7656V38.6562H39.7656V37.6562ZM50.1484 37.6562H51.1484V36.6562H50.1484V37.6562ZM50.1484 40.2812V41.2812H51.1484V40.2812H50.1484ZM39.7656 40.2812V39.2812H38.7656V40.2812H39.7656ZM39.7656 51.5781V52.5781H40.7656V51.5781H39.7656ZM36.9297 51.5781H35.9297V52.5781H36.9297V51.5781ZM36.9297 40.2812H37.9297V39.2812H36.9297V40.2812ZM26.7578 40.2812H25.7578V41.2812H26.7578V40.2812ZM26.7578 37.6562V36.6562H25.7578V37.6562H26.7578ZM36.9297 37.6562V38.6562H37.9297V37.6562H36.9297ZM36.9297 26.7344V25.7344H35.9297V26.7344H36.9297ZM39.7656 26.7344H40.7656V25.7344H39.7656V26.7344ZM39.7656 38.6562H50.1484V36.6562H39.7656V38.6562ZM49.1484 37.6562V40.2812H51.1484V37.6562H49.1484ZM50.1484 39.2812H39.7656V41.2812H50.1484V39.2812ZM38.7656 40.2812V51.5781H40.7656V40.2812H38.7656ZM39.7656 50.5781H36.9297V52.5781H39.7656V50.5781ZM37.9297 51.5781V40.2812H35.9297V51.5781H37.9297ZM36.9297 39.2812H26.7578V41.2812H36.9297V39.2812ZM27.7578 40.2812V37.6562H25.7578V40.2812H27.7578ZM26.7578 38.6562H36.9297V36.6562H26.7578V38.6562ZM37.9297 37.6562V26.7344H35.9297V37.6562H37.9297ZM36.9297 27.7344H39.7656V25.7344H36.9297V27.7344ZM38.7656 26.7344V37.6562H40.7656V26.7344H38.7656Z" fill="white"/>
</svg>
