<svg width="78" height="78" viewBox="0 0 78 78" fill="none" xmlns="http://www.w3.org/2000/svg">
<circle opacity="0.75" cx="39" cy="39" r="39" fill="#323232"/>
<path d="M48.3574 43.0195C48.0645 45.7148 47.0977 47.7773 45.457 49.207C43.8281 50.6367 41.6543 51.3516 38.9355 51.3516C37.0371 51.3516 35.3555 50.877 33.8906 49.9277C32.4375 48.9785 31.3125 47.6367 30.5156 45.9023C29.7188 44.1562 29.3145 42.1641 29.3027 39.9258V36.6035C29.3027 34.3301 29.7012 32.3145 30.498 30.5566C31.2949 28.7988 32.4375 27.4453 33.9258 26.4961C35.4258 25.5352 37.1484 25.0547 39.0938 25.0547C41.8359 25.0547 43.998 25.7988 45.5801 27.2871C47.1738 28.7637 48.0996 30.8086 48.3574 33.4219H46.1777C45.6387 29.0742 43.2773 26.9004 39.0938 26.9004C36.7734 26.9004 34.9219 27.7676 33.5391 29.502C32.168 31.2363 31.4824 33.6328 31.4824 36.6914V39.8203C31.4824 42.7734 32.1504 45.1289 33.4863 46.8867C34.834 48.6445 36.6504 49.5234 38.9355 49.5234C41.1973 49.5234 42.9023 48.9844 44.0508 47.9062C45.1992 46.8164 45.9082 45.1875 46.1777 43.0195H48.3574Z" fill="white"/>
<path d="M48.3574 43.0195L49.3516 43.1276L49.472 42.0195H48.3574V43.0195ZM45.457 49.207L44.8 48.4531L44.7974 48.4555L45.457 49.207ZM33.8906 49.9277L33.3437 50.7649L33.3468 50.7669L33.8906 49.9277ZM30.5156 45.9023L29.6059 46.3175L29.6069 46.3198L30.5156 45.9023ZM29.3027 39.9258L28.3027 39.9258L28.3027 39.931L29.3027 39.9258ZM33.9258 26.4961L34.4635 27.3392L34.4652 27.3381L33.9258 26.4961ZM45.5801 27.2871L44.8949 28.0155L44.9005 28.0207L45.5801 27.2871ZM48.3574 33.4219V34.4219H49.4609L49.3526 33.3237L48.3574 33.4219ZM46.1777 33.4219L45.1853 33.5449L45.2941 34.4219H46.1777V33.4219ZM33.5391 29.502L32.7572 28.8785L32.7546 28.8818L33.5391 29.502ZM33.4863 46.8867L32.6902 47.4918L32.6927 47.4952L33.4863 46.8867ZM44.0508 47.9062L44.7352 48.6353L44.7391 48.6316L44.0508 47.9062ZM46.1777 43.0195V42.0195H45.2944L45.1854 42.8962L46.1777 43.0195ZM47.3633 42.9115C47.0905 45.421 46.2074 47.2267 44.8001 48.4531L46.114 49.9609C47.9879 48.328 49.0384 46.0087 49.3516 43.1276L47.3633 42.9115ZM44.7974 48.4555C43.3938 49.6874 41.4755 50.3516 38.9355 50.3516V52.3516C41.8331 52.3516 44.2624 51.5861 46.1167 49.9586L44.7974 48.4555ZM38.9355 50.3516C37.2125 50.3516 35.7231 49.9236 34.4344 49.0885L33.3468 50.7669C34.9878 51.8303 36.8617 52.3516 38.9355 52.3516V50.3516ZM34.4375 49.0905C33.1576 48.2545 32.1506 47.0657 31.4243 45.4848L29.6069 46.3198C30.4744 48.2077 31.7174 49.7026 33.3437 50.7649L34.4375 49.0905ZM31.4254 45.4872C30.6962 43.8894 30.3138 42.0406 30.3027 39.9205L28.3027 39.931C28.3151 42.2875 28.7413 44.4231 29.6059 46.3175L31.4254 45.4872ZM30.3027 39.9258V36.6035H28.3027V39.9258H30.3027ZM30.3027 36.6035C30.3027 34.4474 30.6803 32.5766 31.4088 30.9695L29.5873 30.1438C28.7221 32.0523 28.3027 34.2127 28.3027 36.6035H30.3027ZM31.4088 30.9695C32.1335 29.3711 33.1538 28.1745 34.4635 27.3392L33.388 25.653C31.7212 26.7161 30.4564 28.2266 29.5873 30.1438L31.4088 30.9695ZM34.4652 27.3381C35.7895 26.4898 37.3214 26.0547 39.0938 26.0547V24.0547C36.9755 24.0547 35.0621 24.5805 33.3864 25.6541L34.4652 27.3381ZM39.0938 26.0547C41.651 26.0547 43.5435 26.7442 44.8949 28.0155L46.2653 26.5588C44.4525 24.8534 42.0209 24.0547 39.0938 24.0547V26.0547ZM44.9005 28.0207C46.2792 29.298 47.1232 31.0968 47.3623 33.5201L49.3526 33.3237C49.076 30.5204 48.0685 28.2293 46.2597 26.5535L44.9005 28.0207ZM48.3574 32.4219H46.1777V34.4219H48.3574V32.4219ZM47.1701 33.2988C46.8821 30.9757 46.0892 29.0926 44.6797 27.795C43.264 26.4917 41.3582 25.9004 39.0938 25.9004V27.9004C41.0129 27.9004 42.3796 28.396 43.3251 29.2665C44.277 30.1427 44.9343 31.5204 45.1853 33.5449L47.1701 33.2988ZM39.0938 25.9004C36.4853 25.9004 34.3396 26.8938 32.7572 28.8785L34.321 30.1254C35.5041 28.6414 37.0616 27.9004 39.0938 27.9004V25.9004ZM32.7546 28.8818C31.199 30.8496 30.4824 33.4929 30.4824 36.6914H32.4824C32.4824 33.7728 33.137 31.6231 34.3235 30.1221L32.7546 28.8818ZM30.4824 36.6914V39.8203H32.4824V36.6914H30.4824ZM30.4824 39.8203C30.4824 42.9187 31.1836 45.5095 32.6902 47.4918L34.2825 46.2816C33.1172 44.7483 32.4824 42.6282 32.4824 39.8203H30.4824ZM32.6927 47.4952C34.2365 49.5088 36.3509 50.5234 38.9355 50.5234V48.5234C36.9499 48.5234 35.4314 47.7803 34.2799 46.2783L32.6927 47.4952ZM38.9355 50.5234C41.3412 50.5234 43.3341 49.9506 44.7352 48.6353L43.3663 47.1772C42.4706 48.0181 41.0533 48.5234 38.9355 48.5234V50.5234ZM44.7391 48.6316C46.1095 47.3312 46.8828 45.4541 47.1701 43.1429L45.1854 42.8962C44.9336 44.9209 44.2889 46.3017 43.3624 47.1809L44.7391 48.6316ZM46.1777 44.0195H48.3574V42.0195H46.1777V44.0195Z" fill="white"/>
</svg>
