<svg width="78" height="78" viewBox="0 0 78 78" fill="none" xmlns="http://www.w3.org/2000/svg">
<circle opacity="0.75" cx="39" cy="39" r="39" fill="#323232"/>
<path d="M33.0508 43.8281H21.4316L18.7949 51H16.5273L26.2129 25.4062H28.2695L37.9551 51H35.7051L33.0508 43.8281ZM22.0996 41.9824H32.3652L27.2324 28.043L22.0996 41.9824ZM59.6465 43.0195C59.3535 45.7148 58.3867 47.7773 56.7461 49.207C55.1172 50.6367 52.9434 51.3516 50.2246 51.3516C48.3262 51.3516 46.6445 50.877 45.1797 49.9277C43.7266 48.9785 42.6016 47.6367 41.8047 45.9023C41.0078 44.1562 40.6035 42.1641 40.5918 39.9258V36.6035C40.5918 34.3301 40.9902 32.3145 41.7871 30.5566C42.584 28.7988 43.7266 27.4453 45.2148 26.4961C46.7148 25.5352 48.4375 25.0547 50.3828 25.0547C53.125 25.0547 55.2871 25.7988 56.8691 27.2871C58.4629 28.7637 59.3887 30.8086 59.6465 33.4219H57.4668C56.9277 29.0742 54.5664 26.9004 50.3828 26.9004C48.0625 26.9004 46.2109 27.7676 44.8281 29.502C43.457 31.2363 42.7715 33.6328 42.7715 36.6914V39.8203C42.7715 42.7734 43.4395 45.1289 44.7754 46.8867C46.123 48.6445 47.9395 49.5234 50.2246 49.5234C52.4863 49.5234 54.1914 48.9844 55.3398 47.9062C56.4883 46.8164 57.1973 45.1875 57.4668 43.0195H59.6465Z" fill="white"/>
<path d="M33.0508 43.8281L33.9886 43.481L33.747 42.8281H33.0508V43.8281ZM21.4316 43.8281V42.8281H20.7338L20.4931 43.4831L21.4316 43.8281ZM18.7949 51V52H19.4927L19.7335 51.3451L18.7949 51ZM16.5273 51L15.5921 50.6461L15.0797 52H16.5273V51ZM26.2129 25.4062V24.4062H25.5221L25.2776 25.0523L26.2129 25.4062ZM28.2695 25.4062L29.2048 25.0523L28.9603 24.4062H28.2695V25.4062ZM37.9551 51V52H39.4027L38.8903 50.6461L37.9551 51ZM35.7051 51L34.7672 51.3471L35.0089 52H35.7051V51ZM22.0996 41.9824L21.1612 41.6369L20.6657 42.9824H22.0996V41.9824ZM32.3652 41.9824V42.9824H33.7991L33.3036 41.6369L32.3652 41.9824ZM27.2324 28.043L28.1708 27.6974L27.2324 25.149L26.294 27.6974L27.2324 28.043ZM33.0508 42.8281H21.4316V44.8281H33.0508V42.8281ZM20.4931 43.4831L17.8563 50.6549L19.7335 51.3451L22.3702 44.1732L20.4931 43.4831ZM18.7949 50H16.5273V52H18.7949V50ZM17.4626 51.3539L27.1482 25.7602L25.2776 25.0523L15.5921 50.6461L17.4626 51.3539ZM26.2129 26.4062H28.2695V24.4062H26.2129V26.4062ZM27.3343 25.7602L37.0198 51.3539L38.8903 50.6461L29.2048 25.0523L27.3343 25.7602ZM37.9551 50H35.7051V52H37.9551V50ZM36.6429 50.6529L33.9886 43.481L32.1129 44.1752L34.7672 51.3471L36.6429 50.6529ZM22.0996 42.9824H32.3652V40.9824H22.0996V42.9824ZM33.3036 41.6369L28.1708 27.6974L26.294 28.3885L31.4268 42.328L33.3036 41.6369ZM26.294 27.6974L21.1612 41.6369L23.038 42.328L28.1708 28.3885L26.294 27.6974ZM59.6465 43.0195L60.6406 43.1276L60.7611 42.0195H59.6465V43.0195ZM56.7461 49.207L56.0891 48.4531L56.0864 48.4555L56.7461 49.207ZM45.1797 49.9277L44.6328 50.7649L44.6359 50.7669L45.1797 49.9277ZM41.8047 45.9023L40.8949 46.3175L40.896 46.3198L41.8047 45.9023ZM40.5918 39.9258L39.5918 39.9258L39.5918 39.931L40.5918 39.9258ZM45.2148 26.4961L45.7526 27.3392L45.7543 27.3381L45.2148 26.4961ZM56.8691 27.2871L56.1839 28.0155L56.1895 28.0207L56.8691 27.2871ZM59.6465 33.4219V34.4219H60.75L60.6417 33.3237L59.6465 33.4219ZM57.4668 33.4219L56.4744 33.5449L56.5831 34.4219H57.4668V33.4219ZM44.8281 29.502L44.0462 28.8785L44.0436 28.8818L44.8281 29.502ZM44.7754 46.8867L43.9792 47.4918L43.9818 47.4952L44.7754 46.8867ZM55.3398 47.9062L56.0243 48.6353L56.0282 48.6316L55.3398 47.9062ZM57.4668 43.0195V42.0195H56.5834L56.4744 42.8962L57.4668 43.0195ZM58.6523 42.9115C58.3796 45.421 57.4965 47.2267 56.0891 48.4531L57.4031 49.9609C59.277 48.328 60.3275 46.0087 60.6406 43.1276L58.6523 42.9115ZM56.0864 48.4555C54.6829 49.6874 52.7645 50.3516 50.2246 50.3516V52.3516C53.1222 52.3516 55.5515 51.5861 57.4057 49.9586L56.0864 48.4555ZM50.2246 50.3516C48.5015 50.3516 47.0122 49.9236 45.7235 49.0885L44.6359 50.7669C46.2769 51.8303 48.1508 52.3516 50.2246 52.3516V50.3516ZM45.7266 49.0905C44.4467 48.2545 43.4397 47.0657 42.7134 45.4848L40.896 46.3198C41.7634 48.2077 43.0064 49.7026 44.6328 50.7649L45.7266 49.0905ZM42.7144 45.4872C41.9853 43.8894 41.6029 42.0406 41.5918 39.9205L39.5918 39.931C39.6041 42.2875 40.0304 44.4231 40.8949 46.3175L42.7144 45.4872ZM41.5918 39.9258V36.6035H39.5918V39.9258H41.5918ZM41.5918 36.6035C41.5918 34.4474 41.9694 32.5766 42.6979 30.9695L40.8763 30.1438C40.0111 32.0523 39.5918 34.2127 39.5918 36.6035H41.5918ZM42.6979 30.9695C43.4225 29.3711 44.4429 28.1745 45.7526 27.3392L44.6771 25.653C43.0102 26.7161 41.7455 28.2266 40.8763 30.1438L42.6979 30.9695ZM45.7543 27.3381C47.0785 26.4898 48.6104 26.0547 50.3828 26.0547V24.0547C48.2646 24.0547 46.3512 24.5805 44.6754 25.6541L45.7543 27.3381ZM50.3828 26.0547C52.9401 26.0547 54.8326 26.7442 56.1839 28.0155L57.5543 26.5588C55.7416 24.8534 53.3099 24.0547 50.3828 24.0547V26.0547ZM56.1895 28.0207C57.5683 29.298 58.4122 31.0968 58.6513 33.5201L60.6417 33.3237C60.3651 30.5204 59.3575 28.2293 57.5488 26.5535L56.1895 28.0207ZM59.6465 32.4219H57.4668V34.4219H59.6465V32.4219ZM58.4592 33.2988C58.1712 30.9757 57.3783 29.0926 55.9688 27.795C54.553 26.4917 52.6472 25.9004 50.3828 25.9004V27.9004C52.302 27.9004 53.6687 28.396 54.6142 29.2665C55.5661 30.1427 56.2234 31.5204 56.4744 33.5449L58.4592 33.2988ZM50.3828 25.9004C47.7744 25.9004 45.6287 26.8938 44.0462 28.8785L45.61 30.1254C46.7932 28.6414 48.3506 27.9004 50.3828 27.9004V25.9004ZM44.0436 28.8818C42.488 30.8496 41.7715 33.4929 41.7715 36.6914H43.7715C43.7715 33.7728 44.426 31.6231 45.6126 30.1221L44.0436 28.8818ZM41.7715 36.6914V39.8203H43.7715V36.6914H41.7715ZM41.7715 39.8203C41.7715 42.9187 42.4727 45.5095 43.9792 47.4918L45.5716 46.2816C44.4062 44.7483 43.7715 42.6282 43.7715 39.8203H41.7715ZM43.9818 47.4952C45.5256 49.5088 47.6399 50.5234 50.2246 50.5234V48.5234C48.239 48.5234 46.7205 47.7803 45.569 46.2783L43.9818 47.4952ZM50.2246 50.5234C52.6303 50.5234 54.6232 49.9506 56.0243 48.6353L54.6554 47.1772C53.7596 48.0181 52.3424 48.5234 50.2246 48.5234V50.5234ZM56.0282 48.6316C57.3986 47.3312 58.1718 45.4541 58.4592 43.1429L56.4744 42.8962C56.2227 44.9209 55.578 46.3017 54.6515 47.1809L56.0282 48.6316ZM57.4668 44.0195H59.6465V42.0195H57.4668V44.0195Z" fill="white"/>
</svg>
