<svg width="78" height="78" viewBox="0 0 78 78" fill="none" xmlns="http://www.w3.org/2000/svg">
<circle opacity="0.75" cx="39" cy="39" r="39" fill="#323232"/>
<path d="M33.2578 57.9297H30.7031L44.9531 20.875H47.4844L33.2578 57.9297Z" fill="white"/>
<path d="M33.2578 57.9297V58.9297H33.945L34.1914 58.2881L33.2578 57.9297ZM30.7031 57.9297L29.7698 57.5707L29.2472 58.9297H30.7031V57.9297ZM44.9531 20.875V19.875H44.2663L44.0198 20.5161L44.9531 20.875ZM47.4844 20.875L48.4179 21.2334L48.9395 19.875H47.4844V20.875ZM33.2578 56.9297H30.7031V58.9297H33.2578V56.9297ZM31.6365 58.2886L45.8865 21.2339L44.0198 20.5161L29.7698 57.5707L31.6365 58.2886ZM44.9531 21.875H47.4844V19.875H44.9531V21.875ZM46.5508 20.5166L32.3243 57.5713L34.1914 58.2881L48.4179 21.2334L46.5508 20.5166Z" fill="white"/>
</svg>
