<svg width="78" height="78" viewBox="0 0 78 78" fill="none" xmlns="http://www.w3.org/2000/svg">
<circle opacity="0.75" cx="39" cy="39" r="39" fill="#323232"/>
<path d="M51.7188 35.0938H25.6562V31.7812H51.7188V35.0938ZM51.7188 47.9375H25.6562V44.625H51.7188V47.9375Z" fill="white"/>
<path d="M51.7188 35.0938V36.0938H52.7188V35.0938H51.7188ZM25.6562 35.0938H24.6562V36.0938H25.6562V35.0938ZM25.6562 31.7812V30.7812H24.6562V31.7812H25.6562ZM51.7188 31.7812H52.7188V30.7812H51.7188V31.7812ZM51.7188 47.9375V48.9375H52.7188V47.9375H51.7188ZM25.6562 47.9375H24.6562V48.9375H25.6562V47.9375ZM25.6562 44.625V43.625H24.6562V44.625H25.6562ZM51.7188 44.625H52.7188V43.625H51.7188V44.625ZM51.7188 34.0938H25.6562V36.0938H51.7188V34.0938ZM26.6562 35.0938V31.7812H24.6562V35.0938H26.6562ZM25.6562 32.7812H51.7188V30.7812H25.6562V32.7812ZM50.7188 31.7812V35.0938H52.7188V31.7812H50.7188ZM51.7188 46.9375H25.6562V48.9375H51.7188V46.9375ZM26.6562 47.9375V44.625H24.6562V47.9375H26.6562ZM25.6562 45.625H51.7188V43.625H25.6562V45.625ZM50.7188 44.625V47.9375H52.7188V44.625H50.7188Z" fill="white"/>
</svg>
