<svg width="78" height="78" viewBox="0 0 78 78" fill="none" xmlns="http://www.w3.org/2000/svg">
<circle opacity="0.75" cx="39" cy="39" r="39" fill="#323232"/>
<path d="M27.916 30.3281C27.916 28.8047 28.3848 27.5449 29.3223 26.5488C30.2715 25.541 31.4727 25.0371 32.9258 25.0371C34.3789 25.0371 35.5742 25.541 36.5117 26.5488C37.4609 27.5449 37.9355 28.8398 37.9355 30.4336V31.6816C37.9355 33.1816 37.4668 34.4355 36.5293 35.4434C35.6035 36.4395 34.4141 36.9375 32.9609 36.9375C31.5195 36.9375 30.3184 36.4453 29.3574 35.4609C28.3965 34.4766 27.916 33.1758 27.916 31.5586V30.3281ZM29.6211 31.6816C29.6211 32.7715 29.9199 33.668 30.5176 34.3711C31.127 35.0742 31.9414 35.4258 32.9609 35.4258C33.957 35.4258 34.748 35.0742 35.334 34.3711C35.9316 33.6562 36.2305 32.7363 36.2305 31.6113V30.3281C36.2305 29.2383 35.9258 28.3418 35.3164 27.6387C34.707 26.9238 33.9102 26.5664 32.9258 26.5664C31.9531 26.5664 31.1562 26.918 30.5352 27.6211C29.9258 28.3242 29.6211 29.2617 29.6211 30.4336V31.6816ZM40.8008 44.7246C40.8008 43.2012 41.2695 41.9414 42.207 40.9453C43.1562 39.9492 44.3516 39.4512 45.793 39.4512C47.2344 39.4512 48.4297 39.9492 49.3789 40.9453C50.3398 41.9297 50.8203 43.2305 50.8203 44.8477V46.0957C50.8203 47.6191 50.3457 48.8789 49.3965 49.875C48.459 50.8711 47.2695 51.3691 45.8281 51.3691C44.3867 51.3691 43.1855 50.877 42.2246 49.8926C41.2754 48.8965 40.8008 47.6016 40.8008 46.0078V44.7246ZM42.4883 46.0957C42.4883 47.1973 42.7871 48.0996 43.3848 48.8027C43.9941 49.5059 44.8086 49.8574 45.8281 49.8574C46.8359 49.8574 47.6328 49.5059 48.2188 48.8027C48.8164 48.0879 49.1152 47.1562 49.1152 46.0078V44.7246C49.1152 43.5996 48.8105 42.6973 48.2012 42.0176C47.6035 41.3262 46.8008 40.9805 45.793 40.9805C44.8086 40.9805 44.0117 41.3262 43.4023 42.0176C42.793 42.709 42.4883 43.6348 42.4883 44.7949V46.0957ZM33.6289 48.873L32.3105 48.0293L44.8086 28.0254L46.127 28.8691L33.6289 48.873Z" fill="white"/>
<path d="M29.3223 26.5488L28.5943 25.8632L28.5941 25.8635L29.3223 26.5488ZM36.5117 26.5488L35.7795 27.23L35.7878 27.2387L36.5117 26.5488ZM36.5293 35.4434L35.7971 34.7623L35.7968 34.7626L36.5293 35.4434ZM30.5176 34.3711L29.7556 35.0188L29.7619 35.026L30.5176 34.3711ZM35.334 34.3711L34.5668 33.7297L34.5658 33.7309L35.334 34.3711ZM35.3164 27.6387L34.5554 28.2874L34.5607 28.2936L35.3164 27.6387ZM30.5352 27.6211L29.7856 26.959L29.7795 26.9662L30.5352 27.6211ZM42.207 40.9453L41.4831 40.2554L41.4788 40.2599L42.207 40.9453ZM49.3789 40.9453L48.6549 41.6352L48.6633 41.6438L49.3789 40.9453ZM49.3965 49.875L48.6725 49.1851L48.6683 49.1896L49.3965 49.875ZM42.2246 49.8926L41.5006 50.5825L41.509 50.5911L42.2246 49.8926ZM43.3848 48.8027L42.6228 49.4504L42.6291 49.4577L43.3848 48.8027ZM48.2188 48.8027L47.4516 48.1613L47.4505 48.1625L48.2188 48.8027ZM48.2012 42.0176L47.4446 42.6715L47.4506 42.6784L47.4566 42.6851L48.2012 42.0176ZM33.6289 48.873L33.0899 49.7153L33.9413 50.2603L34.477 49.4029L33.6289 48.873ZM32.3105 48.0293L31.4625 47.4994L30.9383 48.3383L31.7715 48.8716L32.3105 48.0293ZM44.8086 28.0254L45.3476 27.1831L44.4962 26.6382L43.9605 27.4955L44.8086 28.0254ZM46.127 28.8691L46.975 29.399L47.4992 28.5601L46.666 28.0269L46.127 28.8691ZM28.916 30.3281C28.916 29.028 29.308 28.0231 30.0505 27.2342L28.5941 25.8635C27.4616 27.0667 26.916 28.5814 26.916 30.3281H28.916ZM30.0502 27.2345C30.8002 26.4382 31.7329 26.0371 32.9258 26.0371V24.0371C31.2124 24.0371 29.7428 24.6438 28.5943 25.8632L30.0502 27.2345ZM32.9258 26.0371C34.1185 26.0371 35.0427 26.4379 35.7795 27.2299L37.2439 25.8677C36.1057 24.6441 34.6393 24.0371 32.9258 24.0371V26.0371ZM35.7878 27.2387C36.5318 28.0194 36.9355 29.053 36.9355 30.4336H38.9355C38.9355 28.6266 38.3901 27.0704 37.2357 25.859L35.7878 27.2387ZM36.9355 30.4336V31.6816H38.9355V30.4336H36.9355ZM36.9355 31.6816C36.9355 32.9536 36.5464 33.9568 35.7971 34.7623L37.2615 36.1245C38.3872 34.9143 38.9355 33.4096 38.9355 31.6816H36.9355ZM35.7968 34.7626C35.0743 35.54 34.1575 35.9375 32.9609 35.9375V37.9375C34.6706 37.9375 36.1327 37.3389 37.2618 36.1241L35.7968 34.7626ZM32.9609 35.9375C31.7745 35.9375 30.8359 35.5439 30.073 34.7624L28.6418 36.1595C29.8008 37.3467 31.2645 37.9375 32.9609 37.9375V35.9375ZM30.073 34.7624C29.3261 33.9973 28.916 32.9639 28.916 31.5586H26.916C26.916 33.3876 27.4669 34.9558 28.6418 36.1595L30.073 34.7624ZM28.916 31.5586V30.3281H26.916V31.5586H28.916ZM28.6211 31.6816C28.6211 32.9637 28.9774 34.1032 29.7556 35.0187L31.2795 33.7234C30.8624 33.2328 30.6211 32.5793 30.6211 31.6816H28.6211ZM29.7619 35.026C30.5808 35.9709 31.6827 36.4258 32.9609 36.4258V34.4258C32.2002 34.4258 31.6731 34.1776 31.2733 33.7162L29.7619 35.026ZM32.9609 36.4258C34.224 36.4258 35.308 35.9643 36.1022 35.0113L34.5658 33.7309C34.1881 34.1841 33.69 34.4258 32.9609 34.4258V36.4258ZM36.1012 35.0125C36.8788 34.0824 37.2305 32.9202 37.2305 31.6113H35.2305C35.2305 32.5524 34.9845 33.2301 34.5668 33.7297L36.1012 35.0125ZM37.2305 31.6113V30.3281H35.2305V31.6113H37.2305ZM37.2305 30.3281C37.2305 29.0412 36.8654 27.8991 36.0721 26.9837L34.5607 28.2936C34.9862 28.7845 35.2305 29.4354 35.2305 30.3281H37.2305ZM36.0774 26.9899C35.2679 26.0403 34.187 25.5664 32.9258 25.5664V27.5664C33.6333 27.5664 34.1462 27.8074 34.5554 28.2874L36.0774 26.9899ZM32.9258 25.5664C31.6784 25.5664 30.6044 26.0322 29.7857 26.9591L31.2846 28.2831C31.7081 27.8037 32.2278 27.5664 32.9258 27.5664V25.5664ZM29.7795 26.9662C28.9749 27.8945 28.6211 29.0855 28.6211 30.4336H30.6211C30.6211 29.4379 30.8766 28.754 31.2908 28.276L29.7795 26.9662ZM28.6211 30.4336V31.6816H30.6211V30.4336H28.6211ZM41.8008 44.7246C41.8008 43.4245 42.1927 42.4196 42.9352 41.6307L41.4788 40.2599C40.3463 41.4632 39.8008 42.9779 39.8008 44.7246H41.8008ZM42.931 41.6352C43.6816 40.8475 44.6105 40.4512 45.793 40.4512V38.4512C44.0926 38.4512 42.6309 39.051 41.4831 40.2554L42.931 41.6352ZM45.793 40.4512C46.9754 40.4512 47.9043 40.8475 48.655 41.6352L50.1028 40.2554C48.955 39.051 47.4933 38.4512 45.793 38.4512V40.4512ZM48.6633 41.6438C49.4102 42.409 49.8203 43.4423 49.8203 44.8477H51.8203C51.8203 43.0186 51.2695 41.4504 50.0945 40.2468L48.6633 41.6438ZM49.8203 44.8477V46.0957H51.8203V44.8477H49.8203ZM49.8203 46.0957C49.8203 47.3922 49.4249 48.3956 48.6725 49.1851L50.1204 50.5649C51.2665 49.3622 51.8203 47.846 51.8203 46.0957H49.8203ZM48.6683 49.1896C47.9309 49.9731 47.0104 50.3691 45.8281 50.3691V52.3691C47.5286 52.3691 48.9871 51.769 50.1247 50.5604L48.6683 49.1896ZM45.8281 50.3691C44.6417 50.3691 43.7031 49.9756 42.9402 49.194L41.509 50.5911C42.668 51.7783 44.1317 52.3691 45.8281 52.3691V50.3691ZM42.9485 49.2027C42.2045 48.422 41.8008 47.3884 41.8008 46.0078H39.8008C39.8008 47.8148 40.3462 49.371 41.5007 50.5824L42.9485 49.2027ZM41.8008 46.0078V44.7246H39.8008V46.0078H41.8008ZM41.4883 46.0957C41.4883 47.3864 41.843 48.5329 42.6228 49.4504L44.1467 48.1551C43.7313 47.6663 43.4883 47.0081 43.4883 46.0957H41.4883ZM42.6291 49.4577C43.448 50.4025 44.5498 50.8574 45.8281 50.8574V48.8574C45.0673 48.8574 44.5403 48.6092 44.1405 48.1478L42.6291 49.4577ZM45.8281 50.8574C47.0987 50.8574 48.1903 50.3989 48.987 49.4429L47.4505 48.1625C47.0753 48.6128 46.5731 48.8574 45.8281 48.8574V50.8574ZM48.9859 49.4442C49.7666 48.5104 50.1152 47.3344 50.1152 46.0078H48.1152C48.1152 46.9781 47.8662 47.6653 47.4516 48.1613L48.9859 49.4442ZM50.1152 46.0078V44.7246H48.1152V46.0078H50.1152ZM50.1152 44.7246C50.1152 43.413 49.7555 42.2533 48.9457 41.35L47.4566 42.6851C47.8655 43.1413 48.1152 43.7862 48.1152 44.7246H50.1152ZM48.9577 41.3636C48.1492 40.4283 47.0577 39.9805 45.793 39.9805V41.9805C46.5439 41.9805 47.0578 42.2241 47.4446 42.6715L48.9577 41.3636ZM45.793 39.9805C44.5436 39.9805 43.4655 40.4335 42.6521 41.3564L44.1526 42.6788C44.5579 42.2188 45.0736 41.9805 45.793 41.9805V39.9805ZM42.6521 41.3564C41.8434 42.274 41.4883 43.4565 41.4883 44.7949H43.4883C43.4883 43.8131 43.7426 43.1439 44.1526 42.6788L42.6521 41.3564ZM41.4883 44.7949V46.0957H43.4883V44.7949H41.4883ZM34.168 48.0308L32.8496 47.187L31.7715 48.8716L33.0899 49.7153L34.168 48.0308ZM33.1586 48.5592L45.6567 28.5553L43.9605 27.4955L31.4625 47.4994L33.1586 48.5592ZM44.2695 28.8677L45.5879 29.7114L46.666 28.0269L45.3476 27.1831L44.2695 28.8677ZM45.2789 28.3393L32.7808 48.3432L34.477 49.4029L46.975 29.399L45.2789 28.3393Z" fill="white"/>
</svg>
