<svg width="78" height="78" viewBox="0 0 78 78" fill="none" xmlns="http://www.w3.org/2000/svg">
<circle opacity="0.75" cx="39" cy="39" r="39" fill="#323232"/>
<path d="M39.0215 36.2344L46.2285 25.4062H48.8125L40.3398 38.0273L49.0762 51H46.4746L39.0215 39.8203L31.5332 51H28.9668L37.7207 38.0273L29.2305 25.4062H31.8145L39.0215 36.2344Z" fill="white"/>
<path d="M39.0215 36.2344L38.189 36.7885L39.0215 38.0392L39.854 36.7885L39.0215 36.2344ZM46.2285 25.4062V24.4062H45.6928L45.396 24.8522L46.2285 25.4062ZM48.8125 25.4062L49.6428 25.9636L50.6882 24.4062H48.8125V25.4062ZM40.3398 38.0273L39.5096 37.47L39.1348 38.0282L39.5104 38.5859L40.3398 38.0273ZM49.0762 51V52H50.9552L49.9056 50.4414L49.0762 51ZM46.4746 51L45.6426 51.5547L45.9394 52H46.4746V51ZM39.0215 39.8203L39.8535 39.2656L39.0234 38.0205L38.1906 39.2638L39.0215 39.8203ZM31.5332 51V52H32.067L32.364 51.5565L31.5332 51ZM28.9668 51L28.1379 50.4406L27.0856 52H28.9668V51ZM37.7207 38.0273L38.5496 38.5867L38.9265 38.0282L38.5504 37.4692L37.7207 38.0273ZM29.2305 25.4062V24.4062H27.3526L28.4007 25.9644L29.2305 25.4062ZM31.8145 25.4062L32.6469 24.8522L32.3501 24.4062H31.8145V25.4062ZM39.854 36.7885L47.061 25.9603L45.396 24.8522L38.189 35.6803L39.854 36.7885ZM46.2285 26.4062H48.8125V24.4062H46.2285V26.4062ZM47.9822 24.8489L39.5096 37.47L41.1701 38.5847L49.6428 25.9636L47.9822 24.8489ZM39.5104 38.5859L48.2467 51.5586L49.9056 50.4414L41.1693 37.4688L39.5104 38.5859ZM49.0762 50H46.4746V52H49.0762V50ZM47.3067 50.4453L39.8535 39.2656L38.1894 40.375L45.6426 51.5547L47.3067 50.4453ZM38.1906 39.2638L30.7024 50.4435L32.364 51.5565L39.8523 40.3768L38.1906 39.2638ZM31.5332 50H28.9668V52H31.5332V50ZM29.7957 51.5594L38.5496 38.5867L36.8918 37.468L28.1379 50.4406L29.7957 51.5594ZM38.5504 37.4692L30.0602 24.8481L28.4007 25.9644L36.891 38.5855L38.5504 37.4692ZM29.2305 26.4062H31.8145V24.4062H29.2305V26.4062ZM30.982 25.9603L38.189 36.7885L39.854 35.6803L32.6469 24.8522L30.982 25.9603Z" fill="white"/>
</svg>
