<svg width="78" height="78" viewBox="0 0 78 78" fill="none" xmlns="http://www.w3.org/2000/svg">
<circle opacity="0.75" cx="39" cy="39" r="39" fill="#323232"/>
<path d="M38.1562 29.4375L31.0312 47.2188H27.4062L36.75 24.5H39.5625L48.875 47.2188H45.25L38.1562 29.4375Z" fill="white"/>
<path d="M38.1562 29.4375L39.0851 29.067L38.1583 26.7439L37.228 29.0655L38.1562 29.4375ZM31.0312 47.2188V48.2188H31.7078L31.9595 47.5907L31.0312 47.2188ZM27.4062 47.2188L26.4814 46.8384L25.9137 48.2188H27.4062V47.2188ZM36.75 24.5V23.5H36.08L35.8252 24.1196L36.75 24.5ZM39.5625 24.5L40.4878 24.1207L40.2333 23.5H39.5625V24.5ZM48.875 47.2188V48.2188H50.3657L49.8003 46.8395L48.875 47.2188ZM45.25 47.2188L44.3212 47.5893L44.5723 48.2188H45.25V47.2188ZM37.228 29.0655L30.103 46.8468L31.9595 47.5907L39.0845 29.8095L37.228 29.0655ZM31.0312 46.2188H27.4062V48.2188H31.0312V46.2188ZM28.3311 47.5991L37.6748 24.8804L35.8252 24.1196L26.4814 46.8384L28.3311 47.5991ZM36.75 25.5H39.5625V23.5H36.75V25.5ZM38.6372 24.8793L47.9497 47.598L49.8003 46.8395L40.4878 24.1207L38.6372 24.8793ZM48.875 46.2188H45.25V48.2188H48.875V46.2188ZM46.1788 46.8482L39.0851 29.067L37.2274 29.808L44.3212 47.5893L46.1788 46.8482Z" fill="white"/>
</svg>
